<mxfile host="app.diagrams.net" modified="2021-02-18T08:29:40.635Z" agent="5.0 (X11; Linux x86_64) AppleWebKit/537.36 (KHTML, like Gecko) Chrome/88.0.4324.182 Safari/537.36" etag="dJFxQUcO5HsF2LMNdbJZ" version="14.4.0" type="github">
  <diagram id="C5RBs43oDa-KdzZeNtuy" name="Page-1">
    <mxGraphModel dx="868" dy="430" grid="1" gridSize="10" guides="1" tooltips="1" connect="1" arrows="1" fold="1" page="1" pageScale="1" pageWidth="827" pageHeight="1169" math="0" shadow="0">
      <root>
        <mxCell id="WIyWlLk6GJQsqaUBKTNV-0" />
        <mxCell id="WIyWlLk6GJQsqaUBKTNV-1" parent="WIyWlLk6GJQsqaUBKTNV-0" />
        <mxCell id="DLpXIwkqma0PxiFWtdkf-2" style="edgeStyle=orthogonalEdgeStyle;rounded=0;orthogonalLoop=1;jettySize=auto;html=1;exitX=0.5;exitY=1;exitDx=0;exitDy=0;entryX=0.5;entryY=0;entryDx=0;entryDy=0;strokeColor=#028090;fontColor=#E4FDE1;labelBackgroundColor=#114B5F;" edge="1" parent="WIyWlLk6GJQsqaUBKTNV-1" source="DLpXIwkqma0PxiFWtdkf-3">
          <mxGeometry relative="1" as="geometry">
            <mxPoint x="300" y="150" as="targetPoint" />
          </mxGeometry>
        </mxCell>
        <mxCell id="DLpXIwkqma0PxiFWtdkf-3" value="Вхід" style="ellipse;whiteSpace=wrap;html=1;fillColor=#F45B69;strokeColor=#028090;fontColor=#E4FDE1;" vertex="1" parent="WIyWlLk6GJQsqaUBKTNV-1">
          <mxGeometry x="240" y="80" width="120" height="50" as="geometry" />
        </mxCell>
        <mxCell id="DLpXIwkqma0PxiFWtdkf-6" style="edgeStyle=orthogonalEdgeStyle;curved=0;rounded=1;sketch=0;orthogonalLoop=1;jettySize=auto;html=1;exitX=0.5;exitY=1;exitDx=0;exitDy=0;strokeColor=#028090;fillColor=#F45B69;fontColor=#E4FDE1;labelBackgroundColor=#114B5F;" edge="1" parent="WIyWlLk6GJQsqaUBKTNV-1" target="DLpXIwkqma0PxiFWtdkf-8">
          <mxGeometry relative="1" as="geometry">
            <mxPoint x="300" y="430" as="sourcePoint" />
          </mxGeometry>
        </mxCell>
        <mxCell id="DLpXIwkqma0PxiFWtdkf-8" value="Вихід" style="ellipse;whiteSpace=wrap;html=1;fillColor=#F45B69;strokeColor=#028090;fontColor=#E4FDE1;" vertex="1" parent="WIyWlLk6GJQsqaUBKTNV-1">
          <mxGeometry x="240" y="450" width="120" height="50" as="geometry" />
        </mxCell>
        <mxCell id="DLpXIwkqma0PxiFWtdkf-9" value="&lt;div class=&quot;OutlineElement Ltr SCXW37892440 BCX0&quot; style=&quot;margin: 0px ; padding: 0px ; overflow: visible ; cursor: text ; clear: both ; position: relative ; direction: ltr ; color: rgb(0 , 0 , 0) ; font-family: &amp;#34;segoe ui&amp;#34; , &amp;#34;segoe ui web&amp;#34; , &amp;#34;arial&amp;#34; , &amp;#34;verdana&amp;#34; , sans-serif ; font-size: 12px ; font-style: normal ; font-weight: 400 ; letter-spacing: normal ; text-indent: 0px ; text-transform: none ; word-spacing: 0px ; background-color: rgb(255 , 255 , 255)&quot;&gt;&lt;p class=&quot;Paragraph SCXW37892440 BCX0&quot; lang=&quot;RU-RU&quot; style=&quot;margin: 0px ; padding: 0px ; overflow-wrap: break-word ; font-weight: normal ; font-style: normal ; vertical-align: baseline ; background-color: transparent ; text-align: left ; text-indent: 0px&quot;&gt;&lt;br&gt;&lt;/p&gt;&lt;/div&gt;" style="shape=parallelogram;perimeter=parallelogramPerimeter;whiteSpace=wrap;html=1;fixedSize=1;fillColor=#F45B69;strokeColor=#028090;fontColor=#E4FDE1;" vertex="1" parent="WIyWlLk6GJQsqaUBKTNV-1">
          <mxGeometry x="520" y="100" width="180" height="70" as="geometry" />
        </mxCell>
        <mxCell id="DLpXIwkqma0PxiFWtdkf-10" style="edgeStyle=orthogonalEdgeStyle;curved=0;rounded=1;sketch=0;orthogonalLoop=1;jettySize=auto;html=1;exitX=0.5;exitY=1;exitDx=0;exitDy=0;entryX=0.5;entryY=0;entryDx=0;entryDy=0;strokeColor=#028090;fillColor=#F45B69;fontColor=#E4FDE1;labelBackgroundColor=#114B5F;" edge="1" parent="WIyWlLk6GJQsqaUBKTNV-1" source="DLpXIwkqma0PxiFWtdkf-11">
          <mxGeometry relative="1" as="geometry">
            <mxPoint x="600" y="330" as="targetPoint" />
          </mxGeometry>
        </mxCell>
        <mxCell id="DLpXIwkqma0PxiFWtdkf-11" value="&lt;div class=&quot;OutlineElement Ltr SCXW248350117 BCX0&quot; style=&quot;margin: 0px ; padding: 0px ; overflow: visible ; cursor: text ; clear: both ; position: relative ; direction: ltr ; color: rgb(0 , 0 , 0) ; font-family: &amp;#34;segoe ui&amp;#34; , &amp;#34;segoe ui web&amp;#34; , &amp;#34;arial&amp;#34; , &amp;#34;verdana&amp;#34; , sans-serif ; background-color: rgb(255 , 255 , 255)&quot;&gt;&lt;div class=&quot;OutlineElement Ltr SCXW24346616 BCX0&quot; style=&quot;margin: 0px ; padding: 0px ; overflow: visible ; cursor: text ; clear: both ; position: relative ; direction: ltr ; font-family: &amp;#34;segoe ui&amp;#34; , &amp;#34;segoe ui web&amp;#34; , &amp;#34;arial&amp;#34; , &amp;#34;verdana&amp;#34; , sans-serif&quot;&gt;&lt;p class=&quot;Paragraph SCXW24346616 BCX0&quot; lang=&quot;RU-RU&quot; style=&quot;margin: 0px ; padding: 0px ; overflow-wrap: break-word ; vertical-align: baseline ; background-color: transparent&quot;&gt;&lt;br&gt;&lt;/p&gt;&lt;/div&gt;&lt;/div&gt;" style="rounded=0;whiteSpace=wrap;html=1;sketch=0;strokeColor=#028090;fillColor=#F45B69;fontColor=#E4FDE1;" vertex="1" parent="WIyWlLk6GJQsqaUBKTNV-1">
          <mxGeometry x="480" y="210" width="240" height="90" as="geometry" />
        </mxCell>
        <mxCell id="DLpXIwkqma0PxiFWtdkf-12" value="&lt;div class=&quot;OutlineElement Ltr SCXW248350117 BCX0&quot; style=&quot;margin: 0px ; padding: 0px ; overflow: visible ; cursor: text ; clear: both ; position: relative ; direction: ltr ; color: rgb(0 , 0 , 0) ; font-family: &amp;#34;segoe ui&amp;#34; , &amp;#34;segoe ui web&amp;#34; , &amp;#34;arial&amp;#34; , &amp;#34;verdana&amp;#34; , sans-serif ; background-color: rgb(255 , 255 , 255)&quot;&gt;&lt;div class=&quot;OutlineElement Ltr SCXW24346616 BCX0&quot; style=&quot;margin: 0px ; padding: 0px ; overflow: visible ; cursor: text ; clear: both ; position: relative ; direction: ltr ; font-family: &amp;#34;segoe ui&amp;#34; , &amp;#34;segoe ui web&amp;#34; , &amp;#34;arial&amp;#34; , &amp;#34;verdana&amp;#34; , sans-serif&quot;&gt;&lt;p class=&quot;Paragraph SCXW24346616 BCX0&quot; lang=&quot;RU-RU&quot; style=&quot;margin: 0px ; padding: 0px ; overflow-wrap: break-word ; vertical-align: baseline ; background-color: transparent&quot;&gt;&lt;span lang=&quot;RU-RU&quot; class=&quot;TextRun SCXW24346616 BCX0&quot; style=&quot;margin: 0px ; padding: 0px ; font-size: 11pt ; line-height: 19.425px ; font-family: &amp;#34;calibri&amp;#34; , &amp;#34;calibri_embeddedfont&amp;#34; , &amp;#34;calibri_msfontservice&amp;#34; , sans-serif&quot;&gt;x, y, z = 0,0,0&lt;/span&gt;&lt;span class=&quot;EOP SCXW24346616 BCX0&quot; style=&quot;margin: 0px ; padding: 0px ; font-size: 11pt ; line-height: 19.425px ; font-family: &amp;#34;calibri&amp;#34; , &amp;#34;calibri_embeddedfont&amp;#34; , &amp;#34;calibri_msfontservice&amp;#34; , sans-serif&quot;&gt;&amp;nbsp;&lt;/span&gt;&lt;/p&gt;&lt;/div&gt;&lt;div class=&quot;OutlineElement Ltr SCXW24346616 BCX0&quot; style=&quot;margin: 0px ; padding: 0px ; overflow: visible ; cursor: text ; clear: both ; position: relative ; direction: ltr ; font-family: &amp;#34;segoe ui&amp;#34; , &amp;#34;segoe ui web&amp;#34; , &amp;#34;arial&amp;#34; , &amp;#34;verdana&amp;#34; , sans-serif&quot;&gt;&lt;p class=&quot;Paragraph SCXW24346616 BCX0&quot; lang=&quot;RU-RU&quot; style=&quot;margin: 0px ; padding: 0px ; overflow-wrap: break-word ; vertical-align: baseline ; background-color: transparent&quot;&gt;&lt;span lang=&quot;RU-RU&quot; class=&quot;TextRun SCXW24346616 BCX0&quot; style=&quot;margin: 0px ; padding: 0px ; font-size: 11pt ; line-height: 19.425px ; font-family: &amp;#34;calibri&amp;#34; , &amp;#34;calibri_embeddedfont&amp;#34; , &amp;#34;calibri_msfontservice&amp;#34; , sans-serif&quot;&gt;i = 0.30&lt;/span&gt;&lt;span class=&quot;EOP SCXW24346616 BCX0&quot; style=&quot;margin: 0px ; padding: 0px ; font-size: 11pt ; line-height: 19.425px ; font-family: &amp;#34;calibri&amp;#34; , &amp;#34;calibri_embeddedfont&amp;#34; , &amp;#34;calibri_msfontservice&amp;#34; , sans-serif&quot;&gt;&amp;nbsp;&lt;/span&gt;&lt;/p&gt;&lt;/div&gt;&lt;div class=&quot;OutlineElement Ltr SCXW24346616 BCX0&quot; style=&quot;margin: 0px ; padding: 0px ; overflow: visible ; cursor: text ; clear: both ; position: relative ; direction: ltr ; font-family: &amp;#34;segoe ui&amp;#34; , &amp;#34;segoe ui web&amp;#34; , &amp;#34;arial&amp;#34; , &amp;#34;verdana&amp;#34; , sans-serif&quot;&gt;&lt;p class=&quot;Paragraph SCXW24346616 BCX0&quot; lang=&quot;RU-RU&quot; style=&quot;margin: 0px ; padding: 0px ; overflow-wrap: break-word ; vertical-align: baseline ; background-color: transparent&quot;&gt;&lt;span lang=&quot;RU-RU&quot; class=&quot;TextRun SCXW24346616 BCX0&quot; style=&quot;margin: 0px ; padding: 0px ; font-size: 11pt ; line-height: 19.425px ; font-family: &amp;#34;calibri&amp;#34; , &amp;#34;calibri_embeddedfont&amp;#34; , &amp;#34;calibri_msfontservice&amp;#34; , sans-serif&quot;&gt;n = 0.60&lt;/span&gt;&lt;span class=&quot;EOP SCXW24346616 BCX0&quot; style=&quot;margin: 0px ; padding: 0px ; font-size: 11pt ; line-height: 19.425px ; font-family: &amp;#34;calibri&amp;#34; , &amp;#34;calibri_embeddedfont&amp;#34; , &amp;#34;calibri_msfontservice&amp;#34; , sans-serif&quot;&gt;&amp;nbsp;&lt;/span&gt;&lt;/p&gt;&lt;/div&gt;&lt;div class=&quot;OutlineElement Ltr SCXW24346616 BCX0&quot; style=&quot;margin: 0px ; padding: 0px ; overflow: visible ; cursor: text ; clear: both ; position: relative ; direction: ltr ; font-family: &amp;#34;segoe ui&amp;#34; , &amp;#34;segoe ui web&amp;#34; , &amp;#34;arial&amp;#34; , &amp;#34;verdana&amp;#34; , sans-serif&quot;&gt;&lt;p class=&quot;Paragraph SCXW24346616 BCX0&quot; lang=&quot;RU-RU&quot; style=&quot;margin: 0px ; padding: 0px ; overflow-wrap: break-word ; vertical-align: baseline ; background-color: transparent&quot;&gt;&lt;span lang=&quot;RU-RU&quot; class=&quot;TextRun SCXW24346616 BCX0&quot; style=&quot;margin: 0px ; padding: 0px ; font-size: 11pt ; line-height: 19.425px ; font-family: &amp;#34;calibri&amp;#34; , &amp;#34;calibri_embeddedfont&amp;#34; , &amp;#34;calibri_msfontservice&amp;#34; , sans-serif&quot;&gt;p = 0.05&lt;/span&gt;&lt;span class=&quot;EOP SCXW24346616 BCX0&quot; style=&quot;margin: 0px ; padding: 0px ; font-size: 11pt ; line-height: 19.425px ; font-family: &amp;#34;calibri&amp;#34; , &amp;#34;calibri_embeddedfont&amp;#34; , &amp;#34;calibri_msfontservice&amp;#34; , sans-serif&quot;&gt;&amp;nbsp;&lt;/span&gt;&lt;/p&gt;&lt;/div&gt;&lt;div class=&quot;OutlineElement Ltr  BCX0 SCXW24346616&quot; style=&quot;margin: 0px ; padding: 0px ; overflow: visible ; cursor: text ; clear: both ; position: relative ; direction: ltr ; font-family: &amp;#34;segoe ui&amp;#34; , &amp;#34;segoe ui web&amp;#34; , &amp;#34;arial&amp;#34; , &amp;#34;verdana&amp;#34; , sans-serif&quot;&gt;&lt;p class=&quot;Paragraph SCXW24346616 BCX0&quot; lang=&quot;RU-RU&quot; style=&quot;margin: 0px ; padding: 0px ; overflow-wrap: break-word ; vertical-align: baseline ; background-color: transparent&quot;&gt;&lt;span lang=&quot;RU-RU&quot; class=&quot;TextRun SCXW24346616 BCX0&quot; style=&quot;margin: 0px ; padding: 0px ; font-size: 11pt ; line-height: 19.425px ; font-family: &amp;#34;calibri&amp;#34; , &amp;#34;calibri_embeddedfont&amp;#34; , &amp;#34;calibri_msfontservice&amp;#34; , sans-serif&quot;&gt;a = 0&lt;/span&gt;&lt;span class=&quot;EOP SCXW24346616 BCX0&quot; style=&quot;margin: 0px ; padding: 0px ; font-size: 11pt ; line-height: 19.425px ; font-family: &amp;#34;calibri&amp;#34; , &amp;#34;calibri_embeddedfont&amp;#34; , &amp;#34;calibri_msfontservice&amp;#34; , sans-serif&quot;&gt;&amp;nbsp;&lt;/span&gt;&lt;/p&gt;&lt;/div&gt;&lt;/div&gt;" style="rounded=0;whiteSpace=wrap;html=1;sketch=0;strokeColor=#028090;fillColor=#F45B69;fontColor=#E4FDE1;" vertex="1" parent="WIyWlLk6GJQsqaUBKTNV-1">
          <mxGeometry x="180" y="150" width="240" height="90" as="geometry" />
        </mxCell>
      </root>
    </mxGraphModel>
  </diagram>
</mxfile>
